<?xml version="1.0" standalone="no"?>
<!DOCTYPE svg PUBLIC "-//W3C//DTD SVG 20010904//EN"
 "http://www.w3.org/TR/2001/REC-SVG-20010904/DTD/svg10.dtd">
<svg version="1.0" xmlns="http://www.w3.org/2000/svg"
 width="980.000000pt" height="980.000000pt" viewBox="0 0 980.000000 980.000000"
 preserveAspectRatio="xMidYMid meet">
<metadata>
Created by potrace 1.11, written by Peter Selinger 2001-2013
</metadata>
<g transform="translate(0.000000,980.000000) scale(0.100000,-0.100000)"
fill="#000000" stroke="none">
<path d="M576 9039 c-119 -16 -204 -67 -246 -149 -20 -40 -56 -194 -160 -695
-39 -187 -89 -417 -110 -512 -59 -255 -53 -351 27 -409 26 -19 615 -310 3298
-1627 1764 -866 1788 -877 1818 -877 61 0 102 36 253 217 394 474 857 1005
926 1062 140 115 299 194 466 231 119 27 222 26 957 -10 341 -16 762 -37 935
-45 173 -9 394 -20 490 -24 158 -9 192 -8 179 2 -4 4 -527 235 -2024 897 -412
183 -1049 465 -1415 627 -366 163 -780 345 -920 405 -140 61 -419 184 -620
275 -735 333 -966 424 -1206 473 -284 59 -280 58 -1414 115 -1164 58 -1129 57
-1234 44z"/>
<path d="M258 6673 c-5 -253 8 -308 80 -349 90 -52 1014 -545 1016 -542 0 2
-1 117 -4 256 l-5 253 -529 270 c-292 149 -535 273 -542 276 -9 3 -13 -36 -16
-164z"/>
<path d="M1483 5963 c6 -275 15 -340 61 -431 13 -26 35 -56 48 -68 12 -12 358
-190 768 -396 410 -207 1170 -592 1689 -857 518 -265 944 -481 946 -481 1 0 5
102 9 228 3 125 9 293 12 375 l6 147 -393 194 c-217 106 -1011 497 -1766 869
-754 373 -1374 677 -1378 677 -4 0 -5 -116 -2 -257z"/>
<path d="M6875 6156 c-181 -42 -364 -146 -491 -278 -50 -51 -596 -711 -918
-1107 -164 -203 -206 -244 -273 -275 l-41 -18 -6 -162 c-19 -512 -19 -602 -1
-639 24 -51 81 -76 197 -87 51 -5 325 -16 608 -25 1441 -42 1491 -42 1564 -11
64 27 122 81 179 169 117 177 400 668 590 1022 l86 160 10 145 c17 238 62
1052 58 1056 -6 7 -1043 55 -1272 59 -174 4 -245 1 -290 -9z m50 -576 c452
-18 634 -29 669 -44 41 -17 61 -61 53 -119 -3 -23 -26 -107 -51 -187 -24 -80
-88 -293 -141 -475 -53 -181 -106 -348 -118 -370 -15 -27 -37 -47 -67 -62 -56
-29 -66 -29 -713 -3 -442 18 -504 22 -542 39 -90 40 -88 68 36 492 55 189 116
396 134 459 43 148 48 160 80 198 27 33 68 58 115 73 36 11 247 10 545 -1z"/>
<path d="M8566 6048 c-3 -29 -17 -267 -31 -528 -38 -692 -27 -619 -124 -804
l-81 -155 52 -31 c29 -16 67 -30 83 -31 60 -2 100 3 117 14 9 7 79 86 155 177
468 558 833 989 913 1080 128 145 150 177 150 215 0 61 10 59 -625 89 -319 14
-585 26 -592 26 -7 0 -14 -22 -17 -52z"/>
<path d="M2554 4793 c2 -16 8 -55 11 -88 27 -259 164 -545 319 -664 92 -71
136 -86 256 -86 96 0 110 2 165 30 37 18 88 58 136 105 79 79 158 195 142 211
-13 13 -1010 519 -1023 519 -7 0 -10 -11 -6 -27z"/>
<path d="M3680 4194 c-36 -69 -110 -163 -174 -222 -172 -157 -389 -195 -578
-103 l-58 28 0 -159 0 -158 855 0 855 0 0 109 0 109 -434 221 c-239 122 -436
221 -438 221 -2 0 -14 -21 -28 -46z"/>
<path d="M0 2140 l0 -1390 135 0 134 0 7 38 c7 44 111 525 157 732 l32 144
590 243 c1378 569 2568 1056 2693 1104 l62 24 0 112 0 113 -470 0 -470 0 0
-107 0 -108 -1202 -413 c-660 -227 -1204 -409 -1208 -405 -4 4 -58 299 -120
656 l-114 647 -113 0 -113 0 0 -1390z"/>
<path d="M434 3514 c3 -10 44 -221 91 -469 47 -247 92 -479 99 -515 11 -60 14
-65 37 -62 21 2 1398 450 1408 458 2 2 -24 92 -57 201 -33 109 -68 225 -77
258 -24 88 -36 115 -55 125 -10 5 -325 12 -735 16 -704 7 -717 7 -711 -12z"/>
<path d="M3940 3103 l0 -158 -688 -284 c-378 -157 -1101 -455 -1607 -663 -506
-208 -929 -382 -940 -387 -17 -7 -24 -28 -39 -107 -18 -97 -151 -702 -162
-736 -5 -17 32 -18 683 -18 460 0 701 4 727 11 79 22 88 46 191 549 52 252 66
298 100 332 13 13 552 291 1199 618 l1175 595 1 203 0 202 -320 0 -320 0 0
-157z"/>
</g>
</svg>
